<svg width="82" height="82" viewBox="0 0 82 82" fill="none" xmlns="http://www.w3.org/2000/svg">
<circle cx="41" cy="41" r="39.5" fill="#FF3839" stroke="white" stroke-width="3"/>
<g clip-path="url(#clip0_336_23)">
<path d="M61.5998 23.424H21.6158C21.0069 23.424 20.5133 23.9176 20.5133 24.5265V58.4688C20.5133 59.0776 21.0069 59.5713 21.6158 59.5713H61.5998C62.2087 59.5713 62.7023 59.0776 62.7023 58.4688V24.5265C62.7023 23.9176 62.2087 23.424 61.5998 23.424Z" fill="white"/>
<path d="M61.59 60.311H21.6207C21.1325 60.3097 20.6646 60.1152 20.3194 59.77C19.9741 59.4248 19.7796 58.9569 19.7783 58.4686V24.5312C19.7796 24.043 19.9741 23.5751 20.3194 23.2299C20.6646 22.8847 21.1325 22.6901 21.6207 22.6888H61.59C62.0778 22.6901 62.5452 22.8848 62.8896 23.2302C63.2341 23.5756 63.4275 24.0435 63.4275 24.5312V58.4686C63.4275 58.9564 63.2341 59.4243 62.8896 59.7697C62.5452 60.1151 62.0778 60.3097 61.59 60.311ZM21.6207 24.1588C21.5219 24.1588 21.4272 24.1981 21.3574 24.2679C21.2875 24.3378 21.2483 24.4325 21.2483 24.5312V58.4686C21.2483 58.5674 21.2875 58.6621 21.3574 58.732C21.4272 58.8018 21.5219 58.841 21.6207 58.841H61.59C61.6879 58.8398 61.7814 58.7999 61.8502 58.7303C61.9189 58.6606 61.9575 58.5666 61.9575 58.4686V24.5312C61.9575 24.4333 61.9189 24.3393 61.8502 24.2696C61.7814 24.1999 61.6879 24.1601 61.59 24.1588H21.6207Z" fill="#202020"/>
<path d="M24.7812 27.4077C25.2764 27.4077 25.6779 27.0062 25.6779 26.511C25.6779 26.0157 25.2764 25.6143 24.7812 25.6143C24.286 25.6143 23.8845 26.0157 23.8845 26.511C23.8845 27.0062 24.286 27.4077 24.7812 27.4077Z" fill="#FF3839"/>
<path d="M27.8388 27.4077C28.334 27.4077 28.7355 27.0062 28.7355 26.511C28.7355 26.0157 28.334 25.6143 27.8388 25.6143C27.3436 25.6143 26.9421 26.0157 26.9421 26.511C26.9421 27.0062 27.3436 27.4077 27.8388 27.4077Z" fill="#FF3839"/>
<path d="M30.8915 27.4077C31.3867 27.4077 31.7882 27.0062 31.7882 26.511C31.7882 26.0157 31.3867 25.6143 30.8915 25.6143C30.3963 25.6143 29.9948 26.0157 29.9948 26.511C29.9948 27.0062 30.3963 27.4077 30.8915 27.4077Z" fill="#FF3839"/>
<path d="M58.3609 27.2459H50.0309C49.836 27.2459 49.649 27.1684 49.5112 27.0306C49.3733 26.8928 49.2959 26.7058 49.2959 26.5109C49.2959 26.3159 49.3733 26.129 49.5112 25.9912C49.649 25.8533 49.836 25.7759 50.0309 25.7759H58.3609C58.5558 25.7759 58.7428 25.8533 58.8806 25.9912C59.0185 26.129 59.0959 26.3159 59.0959 26.5109C59.0959 26.7058 59.0185 26.8928 58.8806 27.0306C58.7428 27.1684 58.5558 27.2459 58.3609 27.2459Z" fill="#FF3839"/>
<path d="M62.7023 28.5396H20.5133V30.0096H62.7023V28.5396Z" fill="#202020"/>
<path d="M59.5908 31.9891H23.5709C23.3273 31.9891 23.1299 32.1866 23.1299 32.4301V36.8793C23.1299 37.1229 23.3273 37.3203 23.5709 37.3203H59.5908C59.8344 37.3203 60.0318 37.1229 60.0318 36.8793V32.4301C60.0318 32.1866 59.8344 31.9891 59.5908 31.9891Z" fill="white"/>
<path d="M59.5908 37.8054H23.5709C23.324 37.8054 23.0872 37.7074 22.9126 37.5328C22.738 37.3582 22.6399 37.1214 22.6399 36.8744V32.4301C22.6399 32.1832 22.738 31.9464 22.9126 31.7718C23.0872 31.5972 23.324 31.4991 23.5709 31.4991H59.5908C59.8373 31.5004 60.0734 31.5989 60.2477 31.7733C60.422 31.9476 60.5205 32.1836 60.5218 32.4301V36.8744C60.5205 37.121 60.422 37.357 60.2477 37.5313C60.0734 37.7057 59.8373 37.8042 59.5908 37.8054ZM23.6199 36.8254H59.5418V32.4791H23.6199V36.8254Z" fill="#202020"/>
<path d="M59.5859 40.4023H46.4735C46.2299 40.4023 46.0325 40.5998 46.0325 40.8433V56.6703C46.0325 56.9139 46.2299 57.1113 46.4735 57.1113H59.5859C59.8295 57.1113 60.0269 56.9139 60.0269 56.6703V40.8433C60.0269 40.5998 59.8295 40.4023 59.5859 40.4023Z" fill="white"/>
<path d="M59.5908 57.6014H46.4784C46.2344 57.6014 46 57.5062 45.8251 57.336C45.6503 57.1657 45.5489 56.9339 45.5425 56.69V40.8434C45.5438 40.596 45.643 40.3592 45.8183 40.1847C45.9937 40.0103 46.231 39.9124 46.4784 39.9124H59.5908C59.8373 39.9136 60.0734 40.0121 60.2477 40.1865C60.422 40.3608 60.5205 40.5968 60.5218 40.8434V56.69C60.5154 56.9331 60.4147 57.1641 60.2409 57.3342C60.0671 57.5044 59.834 57.6002 59.5908 57.6014ZM46.5225 56.6214H59.5418V40.8924H46.5225V56.6214Z" fill="#202020"/>
<path d="M42.2889 53.0345H29.1765C28.9329 53.0345 28.7355 53.232 28.7355 53.4755V55.8373C28.7355 56.0809 28.9329 56.2783 29.1765 56.2783H42.2889C42.5325 56.2783 42.7299 56.0809 42.7299 55.8373V53.4755C42.7299 53.232 42.5325 53.0345 42.2889 53.0345Z" fill="white"/>
<path d="M42.2938 56.7635H29.1765C28.93 56.7622 28.6939 56.6637 28.5196 56.4893C28.3453 56.315 28.2468 56.079 28.2455 55.8325V53.4756C28.2468 53.229 28.3453 52.993 28.5196 52.8187C28.6939 52.6443 28.93 52.5458 29.1765 52.5446H42.2938C42.5403 52.5458 42.7764 52.6443 42.9507 52.8187C43.125 52.993 43.2235 53.229 43.2248 53.4756V55.8325C43.2235 56.079 43.125 56.315 42.9507 56.4893C42.7764 56.6637 42.5403 56.7622 42.2938 56.7635ZM29.25 55.7835H42.2448V53.5246H29.25V55.7835Z" fill="#202020"/>
<path d="M42.7348 42.7887H34.4048C34.2099 42.7887 34.0229 42.7113 33.8851 42.5734C33.7472 42.4356 33.6698 42.2487 33.6698 42.0537C33.6698 41.8588 33.7472 41.6718 33.8851 41.534C34.0229 41.3962 34.2099 41.3187 34.4048 41.3187H42.7348C42.9297 41.3187 43.1167 41.3962 43.2545 41.534C43.3924 41.6718 43.4698 41.8588 43.4698 42.0537C43.4698 42.2487 43.3924 42.4356 43.2545 42.5734C43.1167 42.7113 42.9297 42.7887 42.7348 42.7887Z" fill="#FF3839"/>
<path d="M42.7348 45.7042H25.4574C25.3275 45.7042 25.2028 45.6526 25.1109 45.5607C25.019 45.4688 24.9674 45.3442 24.9674 45.2142C24.9674 45.0843 25.019 44.9597 25.1109 44.8678C25.2028 44.7759 25.3275 44.7242 25.4574 44.7242H42.7348C42.8648 44.7242 42.9894 44.7759 43.0813 44.8678C43.1732 44.9597 43.2248 45.0843 43.2248 45.2142C43.2248 45.3442 43.1732 45.4688 43.0813 45.5607C42.9894 45.6526 42.8648 45.7042 42.7348 45.7042Z" fill="#FF3839"/>
<path d="M42.7348 47.9484H25.4574C25.3275 47.9484 25.2028 47.8968 25.1109 47.8049C25.019 47.713 24.9674 47.5883 24.9674 47.4584C24.9674 47.3284 25.019 47.2038 25.1109 47.1119C25.2028 47.02 25.3275 46.9684 25.4574 46.9684H42.7348C42.8648 46.9684 42.9894 47.02 43.0813 47.1119C43.1732 47.2038 43.2248 47.3284 43.2248 47.4584C43.2248 47.5883 43.1732 47.713 43.0813 47.8049C42.9894 47.8968 42.8648 47.9484 42.7348 47.9484Z" fill="#FF3839"/>
<path d="M42.7348 50.1289H29.9948C29.8649 50.1289 29.7402 50.0773 29.6483 49.9854C29.5564 49.8935 29.5048 49.7689 29.5048 49.6389C29.5048 49.509 29.5564 49.3843 29.6483 49.2924C29.7402 49.2006 29.8649 49.1489 29.9948 49.1489H42.7348C42.8648 49.1489 42.9894 49.2006 43.0813 49.2924C43.1732 49.3843 43.2248 49.509 43.2248 49.6389C43.2248 49.7689 43.1732 49.8935 43.0813 49.9854C42.9894 50.0773 42.8648 50.1289 42.7348 50.1289Z" fill="#FF3839"/>
<path d="M59.1391 40.3045L46.3379 56.3748L47.1044 56.9854L59.9057 40.9151L59.1391 40.3045Z" fill="#202020"/>
<path d="M46.7787 40.5485L46.0214 41.1705L59.1246 57.1226L59.8819 56.5006L46.7787 40.5485Z" fill="#202020"/>
<path d="M60.0449 32.2095L22.687 36.5782L22.7439 37.0649L60.1018 32.6962L60.0449 32.2095Z" fill="#202020"/>
<path d="M22.7421 32.2207L22.6854 32.7074L60.0447 37.0631L60.1015 36.5764L22.7421 32.2207Z" fill="#202020"/>
</g>
<defs>
<clipPath id="clip0_336_23">
<rect width="49" height="49" fill="white" transform="translate(17 17)"/>
</clipPath>
</defs>
</svg>
