<svg width="82" height="82" viewBox="0 0 82 82" fill="none" xmlns="http://www.w3.org/2000/svg">
<circle cx="41" cy="41" r="39.5" fill="#FF3839" stroke="white" stroke-width="3"/>
<g clip-path="url(#clip0_336_24)">
<path d="M57.6716 23H25.3284C22.9379 23 21 25.3672 21 28.2874V54.7126C21 57.6328 22.9379 60 25.3284 60H57.6716C60.0621 60 62 57.6328 62 54.7126V28.2874C62 25.3672 60.0621 23 57.6716 23Z" fill="white"/>
<path d="M57.6812 61.3666H25.3188C23.9793 61.3651 22.695 60.7075 21.7478 59.5383C20.8006 58.3691 20.2679 56.7838 20.2667 55.1303V28.403C20.2679 26.7495 20.8006 25.1642 21.7478 23.995C22.695 22.8257 23.9793 22.1682 25.3188 22.1666H57.6812C59.0207 22.1682 60.305 22.8257 61.2522 23.995C62.1994 25.1642 62.7321 26.7495 62.7333 28.403V55.1303C62.7321 56.7838 62.1994 58.3691 61.2522 59.5383C60.305 60.7075 59.0207 61.3651 57.6812 61.3666ZM25.3188 23.9484C24.3621 23.95 23.445 24.4198 22.7685 25.2549C22.092 26.0899 21.7114 27.2221 21.7101 28.403V55.1303C21.7114 56.3112 22.092 57.4433 22.7685 58.2784C23.445 59.1134 24.3621 59.5832 25.3188 59.5848H57.6812C58.6379 59.5832 59.555 59.1134 60.2315 58.2784C60.908 57.4433 61.2886 56.3112 61.2899 55.1303V28.403C61.2886 27.2221 60.908 26.0899 60.2315 25.2549C59.555 24.4198 58.6379 23.95 57.6812 23.9484H25.3188Z" fill="#202020"/>
<path d="M24.84 27.0144C25.3325 27.0144 25.7318 26.6152 25.7318 26.1226C25.7318 25.6301 25.3325 25.2308 24.84 25.2308C24.3475 25.2308 23.9482 25.6301 23.9482 26.1226C23.9482 26.6152 24.3475 27.0144 24.84 27.0144Z" fill="#FF3839"/>
<path d="M27.8633 27.0144C28.3558 27.0144 28.7551 26.6152 28.7551 26.1226C28.7551 25.6301 28.3558 25.2308 27.8633 25.2308C27.3708 25.2308 26.9715 25.6301 26.9715 26.1226C26.9715 26.6152 27.3708 27.0144 27.8633 27.0144Z" fill="#FF3839"/>
<path d="M30.8915 27.0144C31.384 27.0144 31.7833 26.6152 31.7833 26.1226C31.7833 25.6301 31.384 25.2308 30.8915 25.2308C30.399 25.2308 29.9997 25.6301 29.9997 26.1226C29.9997 26.6152 30.399 27.0144 30.8915 27.0144Z" fill="#FF3839"/>
<path d="M58.0865 26.8576H49.83C49.6351 26.8576 49.4481 26.7801 49.3103 26.6423C49.1724 26.5045 49.095 26.3175 49.095 26.1226C49.095 25.9276 49.1724 25.7407 49.3103 25.6029C49.4481 25.465 49.6351 25.3876 49.83 25.3876H58.0865C58.2814 25.3876 58.4684 25.465 58.6062 25.6029C58.7441 25.7407 58.8215 25.9276 58.8215 26.1226C58.8215 26.3175 58.7441 26.5045 58.6062 26.6423C58.4684 26.7801 58.2814 26.8576 58.0865 26.8576Z" fill="#FF3839"/>
<path d="M38.4816 50.3983C38.3564 50.3981 38.2334 50.366 38.1241 50.3049C38.0148 50.2439 37.923 50.1559 37.8572 50.0494C37.7915 49.9429 37.754 49.8214 37.7483 49.6964C37.7427 49.5713 37.7691 49.4469 37.825 49.335L43.8177 37.2761C43.9041 37.1013 44.0564 36.968 44.2411 36.9055C44.4258 36.843 44.6278 36.8564 44.8026 36.9429C44.9774 37.0293 45.1107 37.1816 45.1732 37.3663C45.2357 37.551 45.2222 37.753 45.1358 37.9278L39.1382 49.9916C39.0773 50.1136 38.9836 50.2163 38.8676 50.2881C38.7516 50.3599 38.618 50.3981 38.4816 50.3983Z" fill="#FF3839"/>
<path d="M47.7916 47.9924C47.6701 47.9937 47.5502 47.9644 47.4431 47.907C47.3361 47.8496 47.2452 47.766 47.1791 47.6641C47.1256 47.5843 47.0883 47.4948 47.0694 47.4006C47.0505 47.3064 47.0504 47.2094 47.0691 47.1152C47.0877 47.021 47.1248 46.9314 47.1782 46.8515C47.2315 46.7716 47.3001 46.7031 47.38 46.6498L52.035 43.553L47.6789 40.6571C47.5165 40.5492 47.4035 40.3812 47.3649 40.1901C47.3263 39.9989 47.3652 39.8003 47.4731 39.6379C47.581 39.4754 47.7489 39.3625 47.9401 39.3239C48.1312 39.2853 48.3299 39.3242 48.4923 39.4321L53.75 42.9405C53.8511 43.0075 53.934 43.0985 53.9914 43.2054C54.0487 43.3123 54.0787 43.4317 54.0787 43.553C54.0787 43.6742 54.0487 43.7937 53.9914 43.9005C53.934 44.0074 53.8511 44.0984 53.75 44.1655L48.1983 47.8699C48.0775 47.9493 47.9362 47.9919 47.7916 47.9924Z" fill="#FF3839"/>
<path d="M35.2084 47.9924C35.0638 47.9919 34.9225 47.9493 34.8017 47.8699L29.25 44.1655C29.1489 44.0984 29.066 44.0074 29.0087 43.9005C28.9513 43.7937 28.9213 43.6742 28.9213 43.553C28.9213 43.4317 28.9513 43.3123 29.0087 43.2054C29.066 43.0985 29.1489 43.0075 29.25 42.9405L34.5224 39.4321C34.6849 39.3242 34.8835 39.2853 35.0746 39.3239C35.2658 39.3625 35.4337 39.4754 35.5416 39.6379C35.6495 39.8003 35.6884 39.9989 35.6498 40.1901C35.6112 40.3812 35.4983 40.5492 35.3358 40.6571L30.965 43.553L35.62 46.6498C35.6999 46.7031 35.7685 46.7716 35.8219 46.8515C35.8752 46.9314 35.9123 47.021 35.931 47.1152C35.9496 47.2094 35.9495 47.3064 35.9306 47.4006C35.9117 47.4948 35.8745 47.5843 35.8209 47.6641C35.7548 47.766 35.664 47.8496 35.5569 47.907C35.4498 47.9644 35.3299 47.9937 35.2084 47.9924Z" fill="#FF3839"/>
<path d="M62.3838 28.1267H20.6113V29.5967H62.3838V28.1267Z" fill="#202020"/>
</g>
<defs>
<clipPath id="clip0_336_24">
<rect width="49" height="49" fill="white" transform="translate(17 14)"/>
</clipPath>
</defs>
</svg>
