<svg width="57" height="56" viewBox="0 0 57 56" fill="none" xmlns="http://www.w3.org/2000/svg">
<circle cx="28.8259" cy="28" r="28" fill="#FF3839"/>
<path d="M36.6553 39.3993H21.7439C19.6834 39.3993 18 37.7159 18 35.6553V20.7439C18 18.6834 19.6834 17 21.7439 17H36.6553C38.7159 17 40.3993 18.6834 40.3993 20.7439V35.6553C40.3993 37.7251 38.7251 39.3993 36.6553 39.3993Z" fill="white"/>
<path d="M29.2042 33.9537C27.668 33.9537 26.2238 33.3558 25.1383 32.2703C24.0529 31.1848 23.4549 29.7406 23.4549 28.2044C23.4549 26.6682 24.0529 25.2239 25.1383 24.1385C26.2238 23.053 27.668 22.4551 29.2042 22.4551C30.7405 22.4551 32.1847 23.053 33.2701 24.1385C34.3556 25.2239 34.9535 26.6682 34.9535 28.2044C34.9535 29.7406 34.3556 31.1848 33.2701 32.2703C32.1755 33.3558 30.7405 33.9537 29.2042 33.9537ZM29.2042 23.6785C26.7113 23.6785 24.6784 25.7023 24.6784 28.2044C24.6784 30.6973 26.7021 32.7302 29.2042 32.7302C31.6971 32.7302 33.7301 30.7065 33.7301 28.2044C33.7209 25.7115 31.6971 23.6785 29.2042 23.6785Z" fill="#FF3839"/>
<path d="M36.0742 22.2655C36.6839 22.2655 37.1781 21.7713 37.1781 21.1616C37.1781 20.552 36.6839 20.0577 36.0742 20.0577C35.4645 20.0577 34.9703 20.552 34.9703 21.1616C34.9703 21.7713 35.4645 22.2655 36.0742 22.2655Z" fill="#FF3839"/>
</svg>
