<svg width="57" height="56" viewBox="0 0 57 56" fill="none" xmlns="http://www.w3.org/2000/svg">
<circle cx="28.4776" cy="28" r="28" fill="#FF3839"/>
<path d="M22.3606 20.8064H17.4001V36.6252H22.3606V20.8064Z" fill="white"/>
<path d="M35.7791 20.464C35.5963 20.4411 35.402 20.4297 35.2077 20.4183C32.4302 20.304 30.8643 21.9499 30.3157 22.6585C30.1671 22.8528 30.0985 22.9671 30.0985 22.9671V20.8526H25.3552V36.6714H30.0985H30.3157C30.3157 35.0598 30.3157 33.4597 30.3157 31.8481C30.3157 30.9794 30.3157 30.1107 30.3157 29.2421C30.3157 28.1677 30.2357 27.0247 30.7729 26.0417C31.2301 25.2188 32.053 24.8073 32.9788 24.8073C35.722 24.8073 35.7791 27.2876 35.7791 27.5162C35.7791 27.5276 35.7791 27.539 35.7791 27.539V36.74H40.7397V26.4189C40.7397 22.8871 38.9452 20.8069 35.7791 20.464Z" fill="white"/>
<path d="M19.8803 18.7606C21.4711 18.7606 22.7606 17.4711 22.7606 15.8803C22.7606 14.2896 21.4711 13 19.8803 13C18.2896 13 17 14.2896 17 15.8803C17 17.4711 18.2896 18.7606 19.8803 18.7606Z" fill="white"/>
</svg>
