<svg width="82" height="82" viewBox="0 0 82 82" fill="none" xmlns="http://www.w3.org/2000/svg">
<circle cx="41" cy="41" r="39.5" fill="#FF3839" stroke="white" stroke-width="3"/>
<g clip-path="url(#clip0_336_25)">
<path d="M43.4502 18.1756H26.8784C25.049 18.1756 23.566 19.6586 23.566 21.488V59.3209C23.566 61.1503 25.049 62.6333 26.8784 62.6333H43.4502C45.2796 62.6333 46.7626 61.1503 46.7626 59.3209V21.488C46.7626 19.6586 45.2796 18.1756 43.4502 18.1756Z" fill="white"/>
<path d="M43.46 63.3683H26.8784C25.8054 63.367 24.7766 62.9402 24.0179 62.1814C23.2591 61.4227 22.8323 60.394 22.831 59.3209V21.4929C22.8323 20.4194 23.259 19.3902 24.0176 18.6307C24.7762 17.8711 25.8049 17.4432 26.8784 17.4406H43.46C44.5335 17.4432 45.5622 17.8711 46.3208 18.6307C47.0794 19.3902 47.5061 20.4194 47.5074 21.4929V59.3209C47.5061 60.394 47.0793 61.4227 46.3205 62.1814C45.5618 62.9402 44.533 63.367 43.46 63.3683ZM26.8784 18.9106C26.1944 18.9119 25.5388 19.1845 25.0556 19.6687C24.5724 20.1528 24.301 20.8089 24.301 21.4929V59.3209C24.3023 60.0041 24.5743 60.6589 25.0573 61.142C25.5404 61.6251 26.1952 61.897 26.8784 61.8983H43.46C44.1432 61.897 44.798 61.6251 45.2811 61.142C45.7641 60.6589 46.0361 60.0041 46.0374 59.3209V21.4929C46.0374 20.8089 45.766 20.1528 45.2828 19.6687C44.7996 19.1845 44.144 18.9119 43.46 18.9106H26.8784Z" fill="#202020"/>
<path d="M38.4473 22.4141H31.8813C31.0383 22.4128 30.2302 22.0774 29.6341 21.4813C29.038 20.8851 28.7025 20.077 28.7012 19.234V17.4406H41.6274V19.234C41.6261 20.077 41.2906 20.8851 40.6945 21.4813C40.0984 22.0774 39.2903 22.4128 38.4473 22.4141ZM30.1712 18.9106V19.234C30.1712 19.6876 30.3514 20.1225 30.6721 20.4432C30.9928 20.7639 31.4278 20.9441 31.8813 20.9441H38.4473C38.9008 20.9441 39.3358 20.7639 39.6565 20.4432C39.9772 20.1225 40.1574 19.6876 40.1574 19.234V18.9106H30.1712Z" fill="#202020"/>
<path d="M43.803 25.996H26.5256C26.3307 25.996 26.1437 25.9186 26.0059 25.7807C25.868 25.6429 25.7906 25.4559 25.7906 25.261C25.7906 25.0661 25.868 24.8791 26.0059 24.7413C26.1437 24.6034 26.3307 24.526 26.5256 24.526H43.803C43.9979 24.526 44.1849 24.6034 44.3227 24.7413C44.4606 24.8791 44.538 25.0661 44.538 25.261C44.538 25.4559 44.4606 25.6429 44.3227 25.7807C44.1849 25.9186 43.9979 25.996 43.803 25.996Z" fill="#FF3839"/>
<path d="M43.803 28.6616H26.5256C26.3307 28.6616 26.1437 28.5842 26.0059 28.4463C25.868 28.3085 25.7906 28.1215 25.7906 27.9266C25.7906 27.7317 25.868 27.5447 26.0059 27.4069C26.1437 27.269 26.3307 27.1916 26.5256 27.1916H43.803C43.9979 27.1916 44.1849 27.269 44.3227 27.4069C44.4606 27.5447 44.538 27.7317 44.538 27.9266C44.538 28.1215 44.4606 28.3085 44.3227 28.4463C44.1849 28.5842 43.9979 28.6616 43.803 28.6616Z" fill="#FF3839"/>
<path d="M43.803 31.2978H37.286C37.0911 31.2978 36.9041 31.2204 36.7663 31.0825C36.6284 30.9447 36.551 30.7578 36.551 30.5628C36.551 30.3679 36.6284 30.1809 36.7663 30.0431C36.9041 29.9053 37.0911 29.8278 37.286 29.8278H43.803C43.9979 29.8278 44.1849 29.9053 44.3227 30.0431C44.4606 30.1809 44.538 30.3679 44.538 30.5628C44.538 30.7578 44.4606 30.9447 44.3227 31.0825C44.1849 31.2204 43.9979 31.2978 43.803 31.2978Z" fill="#FF3839"/>
<path d="M62.1045 48.8251H55.7394C54.8572 48.8251 54.142 49.5403 54.142 50.4225V50.8341C54.142 51.7163 54.8572 52.4315 55.7394 52.4315H62.1045C62.9867 52.4315 63.7019 51.7163 63.7019 50.8341V50.4225C63.7019 49.5403 62.9867 48.8251 62.1045 48.8251Z" fill="white"/>
<path d="M62.08 53.1665H55.71C55.091 53.1652 54.4977 52.9184 54.0604 52.4802C53.6232 52.042 53.3776 51.4482 53.3776 50.8292V50.4225C53.3776 49.8039 53.6233 49.2106 54.0607 48.7732C54.4981 48.3358 55.0914 48.0901 55.71 48.0901H62.08C62.6982 48.0914 63.2907 48.3375 63.7278 48.7747C64.1649 49.2118 64.4111 49.8043 64.4124 50.4225V50.8292C64.4124 51.4482 64.1668 52.042 63.7296 52.4802C63.2923 52.9184 62.699 53.1652 62.08 53.1665ZM55.71 49.5601C55.4813 49.5601 55.2619 49.6509 55.1002 49.8127C54.9385 49.9744 54.8476 50.1938 54.8476 50.4225V50.8292C54.8476 51.0584 54.9383 51.2782 55.0999 51.4407C55.2615 51.6032 55.4808 51.6952 55.71 51.6965H62.08C62.3092 51.6952 62.5285 51.6032 62.6901 51.4407C62.8517 51.2782 62.9424 51.0584 62.9424 50.8292V50.4225C62.9424 50.1938 62.8515 49.9744 62.6898 49.8127C62.5281 49.6509 62.3087 49.5601 62.08 49.5601H55.71Z" fill="#202020"/>
<path d="M62.1045 39.2015H55.7394C54.8572 39.2015 54.142 39.9167 54.142 40.7989V41.2105C54.142 42.0927 54.8572 42.8079 55.7394 42.8079H62.1045C62.9867 42.8079 63.7019 42.0927 63.7019 41.2105V40.7989C63.7019 39.9167 62.9867 39.2015 62.1045 39.2015Z" fill="white"/>
<path d="M62.08 43.5429H55.71C55.091 43.5416 54.4977 43.2948 54.0604 42.8566C53.6232 42.4184 53.3776 41.8246 53.3776 41.2056V40.7989C53.3776 40.1803 53.6233 39.587 54.0607 39.1496C54.4981 38.7122 55.0914 38.4665 55.71 38.4665H62.08C62.6982 38.4678 63.2907 38.7139 63.7278 39.1511C64.1649 39.5882 64.4111 40.1807 64.4124 40.7989V41.2056C64.4124 41.8246 64.1668 42.4184 63.7296 42.8566C63.2923 43.2948 62.699 43.5416 62.08 43.5429ZM55.71 39.9365C55.4813 39.9365 55.2619 40.0274 55.1002 40.1891C54.9385 40.3508 54.8476 40.5702 54.8476 40.7989V41.2056C54.8469 41.3193 54.8688 41.4319 54.9118 41.5371C54.9549 41.6423 55.0183 41.738 55.0984 41.8186C55.1786 41.8992 55.2739 41.9631 55.3788 42.0068C55.4838 42.0504 55.5963 42.0729 55.71 42.0729H62.08C62.1937 42.0729 62.3062 42.0504 62.4112 42.0068C62.5161 41.9631 62.6114 41.8992 62.6915 41.8186C62.7717 41.738 62.8351 41.6423 62.8782 41.5371C62.9212 41.4319 62.943 41.3193 62.9424 41.2056V40.7989C62.9424 40.5702 62.8515 40.3508 62.6898 40.1891C62.5281 40.0274 62.3087 39.9365 62.08 39.9365H55.71Z" fill="#202020"/>
<path d="M62.1045 32.513H55.7394C54.8572 32.513 54.142 33.2282 54.142 34.1104V34.522C54.142 35.4042 54.8572 36.1194 55.7394 36.1194H62.1045C62.9867 36.1194 63.7019 35.4042 63.7019 34.522V34.1104C63.7019 33.2282 62.9867 32.513 62.1045 32.513Z" fill="white"/>
<path d="M62.08 36.8544H55.71C55.091 36.8531 54.4977 36.6063 54.0604 36.1681C53.6232 35.7299 53.3776 35.1361 53.3776 34.5171V34.13C53.3776 33.5114 53.6233 32.9181 54.0607 32.4807C54.4981 32.0433 55.0914 31.7976 55.71 31.7976H62.08C62.3878 31.7957 62.6929 31.8545 62.9778 31.9708C63.2628 32.0871 63.522 32.2585 63.7405 32.4752C63.959 32.6919 64.1326 32.9497 64.2513 33.2336C64.3699 33.5176 64.4314 33.8222 64.432 34.13V34.5367C64.4268 35.1557 64.1763 35.7474 63.7353 36.182C63.2944 36.6165 62.699 36.8583 62.08 36.8544ZM55.71 33.248C55.483 33.2557 55.2682 33.3526 55.1122 33.5178C54.9562 33.6829 54.8717 33.9029 54.877 34.13V34.5367C54.877 34.7659 54.9677 34.9857 55.1293 35.1482C55.2909 35.3107 55.5102 35.4027 55.7394 35.404H62.08C62.3092 35.4027 62.5285 35.3107 62.6901 35.1482C62.8517 34.9857 62.9424 34.7659 62.9424 34.5367V34.13C62.945 34.0151 62.9246 33.9008 62.8825 33.7939C62.8403 33.687 62.7772 33.5896 62.6968 33.5075C62.6165 33.4253 62.5205 33.36 62.4146 33.3155C62.3087 33.2709 62.1949 33.248 62.08 33.248H55.71Z" fill="#202020"/>
<path d="M47.9729 58.63H43.803V57.16H47.9729C48.251 57.16 48.5177 57.0495 48.7144 56.8529C48.911 56.6562 49.0215 56.3895 49.0215 56.1114V52.407C49.0215 51.7403 49.2863 51.101 49.7577 50.6296C50.2291 50.1581 50.8685 49.8933 51.5352 49.8933H54.142V51.3633H51.5352C51.2588 51.3646 50.9941 51.475 50.7986 51.6704C50.6032 51.8659 50.4928 52.1306 50.4915 52.407V56.0967C50.4928 56.4285 50.4286 56.7573 50.3027 57.0643C50.1768 57.3713 49.9915 57.6504 49.7576 57.8857C49.5236 58.121 49.2456 58.3079 48.9394 58.4356C48.6331 58.5633 48.3047 58.6294 47.9729 58.63Z" fill="#202020"/>
<path d="M40.9561 56.0771H39.4861V42.7834C39.4874 42.1188 39.7513 41.4817 40.2203 41.0108C40.6893 40.54 41.3254 40.2736 41.99 40.2697H54.142V41.7397H41.99C41.7127 41.7397 41.4468 41.8495 41.2503 42.0451C41.0537 42.2407 40.9427 42.5062 40.9414 42.7834L40.9561 56.0771Z" fill="#202020"/>
<path d="M35.8993 56.0771H34.4293V36.09C34.4306 35.4229 34.6965 34.7835 35.1687 34.3122C35.6409 33.841 36.2808 33.5763 36.9479 33.5763H54.142V35.0463H36.9479C36.6706 35.0463 36.4047 35.1561 36.2081 35.3517C36.0116 35.5473 35.9006 35.8127 35.8993 36.09V56.0771Z" fill="#202020"/>
<path d="M42.2056 56.0771H28.123C27.2408 56.0771 26.5256 56.7923 26.5256 57.6745V58.0861C26.5256 58.9683 27.2408 59.6835 28.123 59.6835H42.2056C43.0878 59.6835 43.803 58.9683 43.803 58.0861V57.6745C43.803 56.7923 43.0878 56.0771 42.2056 56.0771Z" fill="white"/>
<path d="M42.2007 60.4185H28.123C27.504 60.4172 26.9107 60.1704 26.4734 59.7322C26.0362 59.294 25.7906 58.7002 25.7906 58.0812V57.6745C25.7919 57.0563 26.038 56.4638 26.4752 56.0267C26.9123 55.5895 27.5048 55.3434 28.123 55.3421H42.2007C42.8197 55.3421 43.4135 55.5877 43.8517 56.0249C44.2899 56.4622 44.5367 57.0555 44.538 57.6745V58.0812C44.5367 58.7007 44.29 59.2944 43.852 59.7325C43.4139 60.1705 42.8202 60.4172 42.2007 60.4185ZM28.123 56.8121C27.8943 56.8121 27.6749 56.903 27.5132 57.0647C27.3515 57.2264 27.2606 57.4458 27.2606 57.6745V58.0812C27.2606 58.3104 27.3513 58.5302 27.5129 58.6928C27.6745 58.8553 27.8938 58.9472 28.123 58.9485H42.2007C42.3146 58.9485 42.4274 58.9261 42.5326 58.8825C42.6378 58.8389 42.7334 58.775 42.814 58.6945C42.8945 58.6139 42.9584 58.5183 43.002 58.4131C43.0456 58.3079 43.068 58.1951 43.068 58.0812V57.6745C43.068 57.5608 43.0455 57.4483 43.0019 57.3433C42.9582 57.2384 42.8943 57.1431 42.8137 57.063C42.7331 56.9828 42.6374 56.9194 42.5322 56.8763C42.427 56.8333 42.3144 56.8115 42.2007 56.8121H28.123Z" fill="#FF3839"/>
</g>
<defs>
<clipPath id="clip0_336_25">
<rect width="49" height="49" fill="white" transform="translate(17 16)"/>
</clipPath>
</defs>
</svg>
