<svg width="82" height="82" viewBox="0 0 82 82" fill="none" xmlns="http://www.w3.org/2000/svg">
<circle cx="41" cy="41" r="39.5" fill="#FF3839" stroke="white" stroke-width="3"/>
<g clip-path="url(#clip0_336_26)">
<path d="M52.0693 48.0415C53.8057 49.6539 55.1973 51.6016 56.1599 53.7668C57.1226 55.9321 57.6363 58.27 57.67 60.6394C57.6696 60.9799 57.5723 61.3133 57.3894 61.6005C57.2065 61.8878 56.9456 62.117 56.6372 62.2614C56.3288 62.4059 55.9857 62.4595 55.648 62.4161C55.3102 62.3727 54.9918 62.234 54.73 62.0163L47.87 56.2" fill="white"/>
<path d="M55.8472 63.1874C55.2437 63.1853 54.661 62.9662 54.2057 62.57L47.38 56.7341L48.36 55.6169L55.1612 61.4577C55.315 61.5919 55.5044 61.6788 55.7065 61.7078C55.9085 61.7369 56.1147 61.7069 56.3001 61.6214C56.4855 61.536 56.6422 61.3987 56.7514 61.2262C56.8606 61.0537 56.9175 60.8533 56.9154 60.6492C56.8869 58.3801 56.3979 56.1404 55.4781 54.0659C54.5584 51.9914 53.227 50.1252 51.5646 48.5805L52.5446 47.5025C54.3546 49.1783 55.8055 51.2041 56.8095 53.4571C57.8135 55.7102 58.3496 58.1436 58.3854 60.61C58.392 61.0974 58.2565 61.5761 57.9954 61.9877C57.7344 62.3993 57.3591 62.7259 56.9154 62.9277C56.582 63.0896 56.2177 63.1782 55.8472 63.1874Z" fill="#FF3839"/>
<path d="M30.23 48.0415C27.9011 50.2287 26.2079 53.0056 25.33 56.0775C24.9077 57.562 24.6853 59.0961 24.6685 60.6394C24.6689 60.9799 24.7662 61.3133 24.9491 61.6005C25.132 61.8878 25.3929 62.117 25.7013 62.2614C26.0096 62.4059 26.3528 62.4595 26.6905 62.4161C27.0282 62.3727 27.3467 62.234 27.6085 62.0163L34.4391 56.2" fill="white"/>
<path d="M26.4717 63.1874C26.0975 63.1875 25.7279 63.1056 25.3888 62.9473C24.9444 62.7466 24.5684 62.4201 24.3072 62.0083C24.046 61.5965 23.911 61.1172 23.9188 60.6296C23.9494 58.1613 24.4812 55.725 25.4819 53.4685C26.4825 51.212 27.9312 49.1822 29.74 47.5025L30.7445 48.5805C28.5011 50.6689 26.8711 53.3308 26.0307 56.2784C25.6249 57.7005 25.4107 59.1704 25.3937 60.6492C25.3924 60.8524 25.4497 61.0517 25.5586 61.2233C25.6675 61.3948 25.8236 61.5314 26.008 61.6167C26.1925 61.7019 26.3976 61.7323 26.5989 61.7041C26.8002 61.6759 26.9891 61.5904 27.143 61.4577L33.9589 55.6169L34.9389 56.7341L28.1132 62.57C27.6579 62.9662 27.0753 63.1853 26.4717 63.1874Z" fill="#FF3839"/>
<path d="M46.7724 56.2H35.5465C34.4256 56.199 33.3433 55.7911 32.5006 55.052C31.6579 54.313 31.1122 53.2931 30.965 52.182L30.2839 46.9292C29.1178 38.4374 31.1412 29.8147 35.963 22.7281C36.1394 22.4733 36.3207 22.2381 36.502 21.9686L38.3689 19.4157C38.6863 18.9716 39.105 18.6097 39.5904 18.36C40.0757 18.1104 40.6136 17.9801 41.1594 17.9801C41.7052 17.9801 42.2432 18.1104 42.7285 18.36C43.2139 18.6097 43.6326 18.9716 43.95 19.4157L45.8169 21.9686C45.9982 22.2185 46.1795 22.4586 46.3559 22.7281C51.1729 29.8168 53.1959 38.4376 52.035 46.9292L51.349 52.1575C51.2093 53.2731 50.6673 54.2994 49.8247 55.0437C48.982 55.788 47.8967 56.1991 46.7724 56.2Z" fill="white"/>
<path d="M46.7724 56.9105H35.5465C34.2458 56.9109 32.9893 56.4385 32.0112 55.5812C31.0331 54.7238 30.4 53.5401 30.23 52.2506L29.544 47.0223C28.3516 38.3476 30.4244 29.5392 35.3603 22.3067C35.5367 22.047 35.7229 21.7873 35.9091 21.5325L37.7711 18.96C38.1605 18.4274 38.6701 17.9942 39.2584 17.6955C39.8467 17.3969 40.4972 17.2412 41.157 17.2412C41.8168 17.2412 42.4673 17.3969 43.0556 17.6955C43.6439 17.9942 44.1535 18.4274 44.5429 18.96L46.4 21.5325C46.5862 21.7873 46.7675 22.047 46.9488 22.3067C51.8864 29.5386 53.961 38.347 52.77 47.0223L52.084 52.2506C51.9141 53.5393 51.2817 54.7223 50.3046 55.5795C49.3275 56.4368 48.0722 56.9098 46.7724 56.9105ZM41.157 18.7297C40.7285 18.7272 40.3056 18.8274 39.9237 19.0217C39.5418 19.2161 39.212 19.499 38.9618 19.8469L37.09 22.39L36.5608 23.1348C31.8367 30.0722 29.8598 38.5178 31.014 46.8312L31.7 52.0595C31.8235 52.994 32.282 53.8519 32.9904 54.4737C33.6987 55.0956 34.6088 55.4391 35.5514 55.4405H46.7724C47.7133 55.433 48.62 55.0873 49.3271 54.4665C50.0342 53.8458 50.4944 52.9915 50.6238 52.0595L51.3 46.8312C52.4498 38.5204 50.4712 30.0789 45.7483 23.1446C45.5768 22.8947 45.4004 22.6546 45.224 22.3998L43.3571 19.8469C43.1058 19.4989 42.7751 19.216 42.3924 19.0217C42.0097 18.8274 41.5862 18.7273 41.157 18.7297Z" fill="#202020"/>
<path d="M41.157 41.2599C39.8501 41.2599 38.5725 40.8724 37.4856 40.1466C36.3988 39.4207 35.5516 38.3889 35.051 37.1816C34.5504 35.9743 34.4189 34.6458 34.6732 33.3638C34.9275 32.0818 35.556 30.904 36.4795 29.9792C37.403 29.0544 38.5799 28.424 39.8614 28.1679C41.143 27.9117 42.4718 28.0412 43.6798 28.54C44.8878 29.0388 45.9208 29.8845 46.6483 30.9703C47.3758 32.056 47.7652 33.333 47.7671 34.64C47.7671 36.394 47.071 38.0763 45.8316 39.3175C44.5923 40.5587 42.911 41.2573 41.157 41.2599ZM41.157 29.4999C40.1404 29.4999 39.1466 29.8013 38.3013 30.3661C37.456 30.9309 36.7972 31.7337 36.4082 32.6729C36.0191 33.6122 35.9173 34.6457 36.1157 35.6428C36.314 36.6398 36.8035 37.5557 37.5224 38.2746C38.2413 38.9934 39.1571 39.483 40.1542 39.6813C41.1513 39.8796 42.1848 39.7779 43.124 39.3888C44.0633 38.9998 44.866 38.3409 45.4308 37.4957C45.9956 36.6504 46.2971 35.6566 46.2971 34.64C46.2945 33.2784 45.7518 31.9735 44.7881 31.0117C43.8245 30.0499 42.5185 29.5097 41.157 29.5097V29.4999Z" fill="#FF3839"/>
<path d="M41.157 63.7215C40.9621 63.7215 40.7751 63.644 40.6373 63.5062C40.4994 63.3684 40.422 63.1814 40.422 62.9865V58.2335C40.422 58.0385 40.4994 57.8516 40.6373 57.7138C40.7751 57.5759 40.9621 57.4985 41.157 57.4985C41.3519 57.4985 41.5389 57.5759 41.6767 57.7138C41.8146 57.8516 41.892 58.0385 41.892 58.2335V62.9865C41.892 63.1814 41.8146 63.3684 41.6767 63.5062C41.5389 63.644 41.3519 63.7215 41.157 63.7215Z" fill="#FF3839"/>
<path d="M37.727 65.5541C37.5321 65.5541 37.3451 65.4767 37.2073 65.3388C37.0694 65.201 36.992 65.014 36.992 64.8191V60.61C36.992 60.4151 37.0694 60.2281 37.2073 60.0903C37.3451 59.9524 37.5321 59.875 37.727 59.875C37.9219 59.875 38.1089 59.9524 38.2467 60.0903C38.3846 60.2281 38.462 60.4151 38.462 60.61V64.8338C38.4582 65.0262 38.379 65.2094 38.2416 65.344C38.1042 65.4787 37.9194 65.5541 37.727 65.5541Z" fill="#FF3839"/>
<path d="M44.587 65.5541C44.3921 65.5541 44.2051 65.4767 44.0673 65.3388C43.9294 65.201 43.852 65.014 43.852 64.8191V60.61C43.852 60.4151 43.9294 60.2281 44.0673 60.0903C44.2051 59.9524 44.3921 59.875 44.587 59.875C44.7819 59.875 44.9689 59.9524 45.1067 60.0903C45.2446 60.2281 45.322 60.4151 45.322 60.61V64.8338C45.3181 65.0262 45.239 65.2094 45.1016 65.344C44.9642 65.4787 44.7794 65.5541 44.587 65.5541Z" fill="#FF3839"/>
</g>
<defs>
<clipPath id="clip0_336_26">
<rect width="49" height="49" fill="white" transform="translate(17 17)"/>
</clipPath>
</defs>
</svg>
