<svg width="147" height="22" viewBox="0 0 147 22" fill="none" xmlns="http://www.w3.org/2000/svg">
<path d="M11.4455 0.143982L14.2444 6.87334L21.5093 7.45576L15.9743 12.1972L17.6653 19.2865L11.4455 15.4875L5.22577 19.2865L6.91683 12.1972L1.38174 7.45576L8.64664 6.87334L11.4455 0.143982Z" fill="#FF3839"/>
<path d="M42.6868 0.143921L45.4857 6.87328L52.7506 7.4557L47.2155 12.1971L48.9066 19.2864L42.6868 15.4874L36.467 19.2864L38.1581 12.1971L32.623 7.4557L39.8879 6.87328L42.6868 0.143921Z" fill="#FF3839"/>
<path d="M73.928 0.143921L76.7269 6.87328L83.9918 7.4557L78.4567 12.1971L80.1478 19.2864L73.928 15.4874L67.7083 19.2864L69.3993 12.1971L63.8642 7.4557L71.1291 6.87328L73.928 0.143921Z" fill="#FF3839"/>
<path d="M105.169 0.143921L107.968 6.87328L115.233 7.4557L109.698 12.1971L111.389 19.2864L105.169 15.4874L98.9495 19.2864L100.641 12.1971L95.1055 7.4557L102.37 6.87328L105.169 0.143921Z" fill="#FF3839"/>
<path d="M136.411 0.143921L139.209 6.87328L146.474 7.4557L140.939 12.1971L142.63 19.2864L136.411 15.4874L130.191 19.2864L131.882 12.1971L126.347 7.4557L133.612 6.87328L136.411 0.143921Z" fill="#FF3839"/>
</svg>
