<svg width="57" height="56" viewBox="0 0 57 56" fill="none" xmlns="http://www.w3.org/2000/svg">
<circle cx="28.6517" cy="28" r="28" fill="#FF3839"/>
<path d="M16 36.8185C18.8223 36.9791 21.2902 36.312 23.6971 34.5455C21.2658 34.1255 19.5798 33.0014 18.6634 30.679C19.3721 30.5801 19.9952 30.7654 20.7282 30.469C18.3336 29.4066 16.7819 27.813 16.7208 25.0582C17.4783 25.12 18.0526 25.6265 18.9567 25.5524C16.7575 23.3782 16.0855 21.0064 17.4661 18.1281C19.763 20.7964 22.4509 22.6123 25.7374 23.4647C25.9207 23.5141 26.0917 23.5635 26.275 23.6006C27.118 23.7982 28.1198 24.2182 28.633 24.1565C29.5126 24.0453 28.633 23.02 28.8529 21.6858C29.5493 17.5351 34.0698 15.6451 37.4174 18.0787C38.3948 18.7952 39.1645 18.7828 40.1297 18.3504C40.6306 18.1281 41.1438 17.9057 41.7424 17.6463C41.608 18.8322 40.7039 19.4869 39.9831 20.364C40.8017 20.5493 41.4614 20.3146 42.2189 20.0675C41.9623 20.9199 41.327 21.4017 40.7528 21.8711C40.1541 22.3529 39.922 22.8594 39.8976 23.65C39.531 35.6202 26.0795 44.8728 16.8797 37.5103C15.9878 36.7938 16.8552 37.5103 16 36.8185Z" fill="white"/>
</svg>
